<svg width="12" height="14" viewBox="0 0 12 14" fill="none" xmlns="http://www.w3.org/2000/svg">
<path d="M11.469 11.6026L10.7034 3.64073C10.687 3.46397 10.5257 3.33014 10.337 3.33014H8.76212C8.74025 2.0019 7.56455 0.928711 6.12089 0.928711C4.67724 0.928711 3.50154 2.0019 3.47966 3.33014H1.90477C1.71338 3.33014 1.55479 3.46397 1.53839 3.64073L0.772815 11.6026C0.772815 11.6127 0.770081 11.6228 0.770081 11.6329C0.770081 12.5394 1.66963 13.2767 2.77698 13.2767H9.46481C10.5722 13.2767 11.4717 12.5394 11.4717 11.6329C11.4717 11.6228 11.4717 11.6127 11.469 11.6026ZM6.12089 1.6105C7.15715 1.6105 8.00202 2.37815 8.02389 3.33014H4.2179C4.23977 2.37815 5.08463 1.6105 6.12089 1.6105ZM9.46481 12.5949H2.77698C2.08249 12.5949 1.51925 12.1707 1.50831 11.648L2.24108 4.01446H3.47693V5.04977C3.47693 5.23916 3.64098 5.39067 3.84605 5.39067C4.05111 5.39067 4.21516 5.23916 4.21516 5.04977V4.01446H8.02389V5.04977C8.02389 5.23916 8.18794 5.39067 8.39301 5.39067C8.59807 5.39067 8.76212 5.23916 8.76212 5.04977V4.01446H9.99798L10.7335 11.648C10.7225 12.1707 10.1566 12.5949 9.46481 12.5949Z" fill="white"/>
</svg>
